<?xml version="1.0" encoding="UTF-8"?>
<svg xmlns="http://www.w3.org/2000/svg" xmlns:xlink="http://www.w3.org/1999/xlink" width="512px" height="512px" viewBox="0 0 512 512" version="1.1">
<g id="surface1">
<path style=" stroke:none;fill-rule:nonzero;fill:rgb(0%,90.196078%,46.27451%);fill-opacity:1;" d="M 140.472656 430.605469 L 148.347656 434.542969 C 181.167969 454.234375 217.929688 463.425781 254.6875 463.425781 C 370.214844 463.425781 464.738281 368.902344 464.738281 253.375 C 464.738281 198.234375 442.421875 144.410156 403.035156 105.027344 C 363.652344 65.640625 311.136719 43.324219 254.6875 43.324219 C 139.160156 43.324219 44.636719 137.847656 45.949219 254.6875 C 45.949219 294.070312 57.765625 332.144531 77.457031 364.964844 L 82.707031 372.839844 L 61.703125 450.296875 Z M 140.472656 430.605469 "/>
<path style=" stroke:none;fill-rule:nonzero;fill:rgb(100%,100%,100%);fill-opacity:1;" d="M 425.355469 84.019531 C 380.71875 38.070312 319.015625 13.128906 256 13.128906 C 122.09375 13.128906 14.441406 122.09375 15.753906 254.6875 C 15.753906 296.699219 27.570312 337.394531 47.261719 374.152344 L 13.128906 498.871094 L 140.472656 466.050781 C 175.917969 485.742188 215.300781 494.933594 254.6875 494.933594 C 387.28125 494.933594 494.933594 385.96875 494.933594 253.375 C 494.933594 189.046875 469.988281 128.65625 425.355469 84.019531 Z M 256 454.234375 C 220.554688 454.234375 185.109375 445.046875 154.914062 426.667969 L 147.035156 422.726562 L 70.890625 442.421875 L 90.585938 367.589844 L 85.332031 359.710938 C 27.570312 266.503906 55.136719 143.097656 149.660156 85.332031 C 244.183594 27.570312 366.277344 55.136719 424.042969 149.660156 C 481.804688 244.183594 454.234375 366.277344 359.710938 424.042969 C 329.519531 443.734375 292.757812 454.234375 256 454.234375 Z M 371.527344 308.511719 L 357.085938 301.949219 C 357.085938 301.949219 336.082031 292.757812 322.953125 286.195312 C 321.640625 286.195312 320.328125 284.882812 319.015625 284.882812 C 315.078125 284.882812 312.453125 286.195312 309.824219 287.507812 C 309.824219 287.507812 308.511719 288.820312 290.132812 309.824219 C 288.820312 312.453125 286.195312 313.765625 283.570312 313.765625 L 282.257812 313.765625 C 280.945312 313.765625 278.316406 312.453125 277.003906 311.136719 L 270.441406 308.511719 C 256 301.949219 242.871094 294.070312 232.371094 283.570312 C 229.742188 280.945312 225.804688 278.316406 223.179688 275.691406 C 213.988281 266.503906 204.800781 256 198.234375 244.183594 L 196.921875 241.558594 C 195.609375 240.246094 195.609375 238.933594 194.296875 236.308594 C 194.296875 233.683594 194.296875 231.054688 195.609375 229.742188 C 195.609375 229.742188 200.863281 223.179688 204.800781 219.242188 C 207.425781 216.617188 208.738281 212.675781 211.363281 210.050781 C 213.988281 206.113281 215.300781 200.863281 213.988281 196.921875 C 212.675781 190.359375 196.921875 154.914062 192.984375 147.035156 C 190.359375 143.097656 187.734375 141.785156 183.792969 140.472656 L 169.355469 140.472656 C 166.726562 140.472656 164.101562 141.785156 161.476562 141.785156 L 160.164062 143.097656 C 157.539062 144.410156 154.914062 147.035156 152.289062 148.347656 C 149.660156 150.972656 148.347656 153.601562 145.722656 156.226562 C 136.535156 168.042969 131.28125 182.480469 131.28125 196.921875 C 131.28125 207.425781 133.90625 217.929688 137.847656 227.117188 L 139.160156 231.054688 C 150.972656 256 166.726562 278.316406 187.734375 298.011719 L 192.984375 303.261719 C 196.921875 307.199219 200.863281 309.824219 203.488281 313.765625 C 231.054688 337.394531 262.5625 354.460938 298.011719 363.652344 C 301.949219 364.964844 307.199219 364.964844 311.136719 366.277344 L 324.265625 366.277344 C 330.832031 366.277344 338.707031 363.652344 343.957031 361.027344 C 347.898438 358.398438 350.523438 358.398438 353.148438 355.773438 L 355.773438 353.148438 C 358.398438 350.523438 361.027344 349.210938 363.652344 346.585938 C 366.277344 343.957031 368.902344 341.332031 370.214844 338.707031 C 372.839844 333.457031 374.152344 326.890625 375.464844 320.328125 L 375.464844 311.136719 C 375.464844 311.136719 374.152344 309.824219 371.527344 308.511719 Z M 371.527344 308.511719 "/>
</g>
</svg>
